<svg xmlns="http://www.w3.org/2000/svg" width="87.39999999999999" height="87.39999999999999" viewBox="0 0 87.39999999999999 87.39999999999999" shape-rendering="crispEdges" role="img" aria-label="One year sticker"><rect x="0.0" y="36.8" width="87.39999999999999" height="4.6" fill="rgba(10,10,10,0.16)"></rect><rect x="9.2" y="18.4" width="69.0" height="4.6" fill="rgba(10,10,10,0.16)"></rect><rect x="9.2" y="82.8" width="23.0" height="4.6" fill="rgba(10,10,10,0.16)"></rect><rect x="55.199999999999996" y="82.8" width="23.0" height="4.6" fill="rgba(10,10,10,0.16)"></rect><rect x="0.0" y="59.8" width="87.39999999999999" height="4.6" fill="rgba(10,10,10,0.16)"></rect><rect x="4.6" y="23.0" width="78.19999999999999" height="4.6" fill="rgba(10,10,10,0.16)"></rect><rect x="4.6" y="78.19999999999999" width="36.8" height="4.6" fill="rgba(10,10,10,0.16)"></rect><rect x="46.0" y="78.19999999999999" width="36.8" height="4.6" fill="rgba(10,10,10,0.16)"></rect><rect x="0.0" y="64.39999999999999" width="87.39999999999999" height="4.6" fill="rgba(10,10,10,0.16)"></rect><rect x="4.6" y="55.199999999999996" width="78.19999999999999" height="4.6" fill="rgba(10,10,10,0.16)"></rect><rect x="0.0" y="41.4" width="87.39999999999999" height="4.6" fill="rgba(10,10,10,0.16)"></rect><rect x="4.6" y="46.0" width="78.19999999999999" height="4.6" fill="rgba(10,10,10,0.16)"></rect><rect x="0.0" y="27.599999999999998" width="87.39999999999999" height="4.6" fill="rgba(10,10,10,0.16)"></rect><rect x="0.0" y="69.0" width="87.39999999999999" height="4.6" fill="rgba(10,10,10,0.16)"></rect><rect x="4.6" y="50.599999999999994" width="78.19999999999999" height="4.6" fill="rgba(10,10,10,0.16)"></rect><rect x="0.0" y="32.199999999999996" width="87.39999999999999" height="4.6" fill="rgba(10,10,10,0.16)"></rect><rect x="0.0" y="73.6" width="87.39999999999999" height="4.6" fill="rgba(10,10,10,0.16)"></rect><rect x="36.8" y="4.6" width="13.799999999999999" height="4.6" fill="rgba(10,10,10,0.16)"></rect><rect x="27.599999999999998" y="13.799999999999999" width="32.199999999999996" height="4.6" fill="rgba(10,10,10,0.16)"></rect><rect x="32.199999999999996" y="9.2" width="23.0" height="4.6" fill="rgba(10,10,10,0.16)"></rect><rect x="0.0" y="32.199999999999996" width="87.39999999999999" height="4.6" fill="#D9D9D1"></rect><rect x="9.2" y="13.799999999999999" width="69.0" height="4.6" fill="#D9D9D1"></rect><rect x="9.2" y="78.19999999999999" width="23.0" height="4.6" fill="#D9D9D1"></rect><rect x="55.199999999999996" y="78.19999999999999" width="23.0" height="4.6" fill="#D9D9D1"></rect><rect x="0.0" y="55.199999999999996" width="87.39999999999999" height="4.6" fill="#D9D9D1"></rect><rect x="4.6" y="18.4" width="78.19999999999999" height="4.6" fill="#D9D9D1"></rect><rect x="4.6" y="73.6" width="36.8" height="4.6" fill="#D9D9D1"></rect><rect x="46.0" y="73.6" width="36.8" height="4.6" fill="#D9D9D1"></rect><rect x="0.0" y="59.8" width="87.39999999999999" height="4.6" fill="#D9D9D1"></rect><rect x="4.6" y="50.599999999999994" width="78.19999999999999" height="4.6" fill="#D9D9D1"></rect><rect x="0.0" y="36.8" width="87.39999999999999" height="4.6" fill="#D9D9D1"></rect><rect x="4.6" y="41.4" width="78.19999999999999" height="4.6" fill="#D9D9D1"></rect><rect x="0.0" y="23.0" width="87.39999999999999" height="4.6" fill="#D9D9D1"></rect><rect x="0.0" y="64.39999999999999" width="87.39999999999999" height="4.6" fill="#D9D9D1"></rect><rect x="4.6" y="46.0" width="78.19999999999999" height="4.6" fill="#D9D9D1"></rect><rect x="0.0" y="27.599999999999998" width="87.39999999999999" height="4.6" fill="#D9D9D1"></rect><rect x="0.0" y="69.0" width="87.39999999999999" height="4.6" fill="#D9D9D1"></rect><rect x="36.8" y="0.0" width="13.799999999999999" height="4.6" fill="#D9D9D1"></rect><rect x="27.599999999999998" y="9.2" width="32.199999999999996" height="4.6" fill="#D9D9D1"></rect><rect x="32.199999999999996" y="4.6" width="23.0" height="4.6" fill="#D9D9D1"></rect><rect x="4.6" y="32.199999999999996" width="78.19999999999999" height="4.6" fill="#FFFFFF"></rect><rect x="27.599999999999998" y="13.799999999999999" width="32.199999999999996" height="4.6" fill="#FFFFFF"></rect><rect x="4.6" y="55.199999999999996" width="78.19999999999999" height="4.6" fill="#FFFFFF"></rect><rect x="9.2" y="18.4" width="69.0" height="4.6" fill="#FFFFFF"></rect><rect x="9.2" y="73.6" width="23.0" height="4.6" fill="#FFFFFF"></rect><rect x="55.199999999999996" y="73.6" width="23.0" height="4.6" fill="#FFFFFF"></rect><rect x="4.6" y="59.8" width="78.19999999999999" height="4.6" fill="#FFFFFF"></rect><rect x="9.2" y="41.4" width="69.0" height="4.6" fill="#FFFFFF"></rect><rect x="9.2" y="50.599999999999994" width="69.0" height="4.6" fill="#FFFFFF"></rect><rect x="4.6" y="36.8" width="78.19999999999999" height="4.6" fill="#FFFFFF"></rect><rect x="4.6" y="23.0" width="78.19999999999999" height="4.6" fill="#FFFFFF"></rect><rect x="4.6" y="64.39999999999999" width="78.19999999999999" height="4.6" fill="#FFFFFF"></rect><rect x="9.2" y="46.0" width="69.0" height="4.6" fill="#FFFFFF"></rect><rect x="4.6" y="27.599999999999998" width="78.19999999999999" height="4.6" fill="#FFFFFF"></rect><rect x="4.6" y="69.0" width="36.8" height="4.6" fill="#FFFFFF"></rect><rect x="46.0" y="69.0" width="36.8" height="4.6" fill="#FFFFFF"></rect><rect x="36.8" y="4.6" width="13.799999999999999" height="4.6" fill="#FFFFFF"></rect><rect x="32.199999999999996" y="9.2" width="23.0" height="4.6" fill="#FFFFFF"></rect><rect x="41.4" y="13.799999999999999" width="4.6" height="4.6" fill="#0A0A0A"></rect><rect x="36.8" y="18.4" width="4.6" height="4.6" fill="#0A0A0A"></rect><rect x="46.0" y="18.4" width="4.6" height="4.6" fill="#0A0A0A"></rect><rect x="36.8" y="23.0" width="4.6" height="4.6" fill="#0A0A0A"></rect><rect x="46.0" y="23.0" width="4.6" height="4.6" fill="#0A0A0A"></rect><rect x="13.799999999999999" y="27.599999999999998" width="23.0" height="4.6" fill="#0A0A0A"></rect><rect x="50.599999999999994" y="27.599999999999998" width="23.0" height="4.6" fill="#0A0A0A"></rect><rect x="13.799999999999999" y="32.199999999999996" width="4.6" height="4.6" fill="#0A0A0A"></rect><rect x="69.0" y="32.199999999999996" width="4.6" height="4.6" fill="#0A0A0A"></rect><rect x="18.4" y="36.8" width="4.6" height="4.6" fill="#0A0A0A"></rect><rect x="32.199999999999996" y="36.8" width="4.6" height="4.6" fill="#0A0A0A"></rect><rect x="50.599999999999994" y="36.8" width="4.6" height="4.6" fill="#0A0A0A"></rect><rect x="64.39999999999999" y="36.8" width="4.6" height="4.6" fill="#0A0A0A"></rect><rect x="23.0" y="41.4" width="4.6" height="4.6" fill="#0A0A0A"></rect><rect x="32.199999999999996" y="41.4" width="4.6" height="4.6" fill="#0A0A0A"></rect><rect x="50.599999999999994" y="41.4" width="4.6" height="4.6" fill="#0A0A0A"></rect><rect x="59.8" y="41.4" width="4.6" height="4.6" fill="#0A0A0A"></rect><rect x="23.0" y="46.0" width="4.6" height="4.6" fill="#0A0A0A"></rect><rect x="59.8" y="46.0" width="4.6" height="4.6" fill="#0A0A0A"></rect><rect x="18.4" y="50.599999999999994" width="4.6" height="4.6" fill="#0A0A0A"></rect><rect x="64.39999999999999" y="50.599999999999994" width="4.6" height="4.6" fill="#0A0A0A"></rect><rect x="18.4" y="55.199999999999996" width="4.6" height="4.6" fill="#0A0A0A"></rect><rect x="36.8" y="55.199999999999996" width="13.799999999999999" height="4.6" fill="#0A0A0A"></rect><rect x="64.39999999999999" y="55.199999999999996" width="4.6" height="4.6" fill="#0A0A0A"></rect><rect x="13.799999999999999" y="59.8" width="4.6" height="4.6" fill="#0A0A0A"></rect><rect x="27.599999999999998" y="59.8" width="9.2" height="4.6" fill="#0A0A0A"></rect><rect x="50.599999999999994" y="59.8" width="9.2" height="4.6" fill="#0A0A0A"></rect><rect x="69.0" y="59.8" width="4.6" height="4.6" fill="#0A0A0A"></rect><rect x="13.799999999999999" y="64.39999999999999" width="13.799999999999999" height="4.6" fill="#0A0A0A"></rect><rect x="59.8" y="64.39999999999999" width="13.799999999999999" height="4.6" fill="#0A0A0A"></rect><rect x="41.4" y="18.4" width="4.6" height="4.6" fill="#FFC94A"></rect><rect x="41.4" y="23.0" width="4.6" height="4.6" fill="#FFC94A"></rect><rect x="36.8" y="27.599999999999998" width="13.799999999999999" height="4.6" fill="#FFC94A"></rect><rect x="18.4" y="32.199999999999996" width="50.599999999999994" height="4.6" fill="#FFC94A"></rect><rect x="23.0" y="36.8" width="9.2" height="4.6" fill="#FFC94A"></rect><rect x="36.8" y="36.8" width="13.799999999999999" height="4.6" fill="#FFC94A"></rect><rect x="55.199999999999996" y="36.8" width="9.2" height="4.6" fill="#FFC94A"></rect><rect x="27.599999999999998" y="41.4" width="4.6" height="4.6" fill="#FFC94A"></rect><rect x="36.8" y="41.4" width="13.799999999999999" height="4.6" fill="#FFC94A"></rect><rect x="55.199999999999996" y="41.4" width="4.6" height="4.6" fill="#FFC94A"></rect><rect x="27.599999999999998" y="46.0" width="32.199999999999996" height="4.6" fill="#FFC94A"></rect><rect x="23.0" y="50.599999999999994" width="41.4" height="4.6" fill="#FFC94A"></rect><rect x="23.0" y="55.199999999999996" width="13.799999999999999" height="4.6" fill="#FFC94A"></rect><rect x="50.599999999999994" y="55.199999999999996" width="13.799999999999999" height="4.6" fill="#FFC94A"></rect><rect x="18.4" y="59.8" width="9.2" height="4.6" fill="#FFC94A"></rect><rect x="59.8" y="59.8" width="9.2" height="4.6" fill="#FFC94A"></rect></svg>
